<?xml version="1.0" encoding="UTF-8" standalone="no"?>
<svg
   viewBox="0 0 36 36"
   version="1.1"
   id="svg36"
   sodipodi:docname="bible-inkscape.svg"
   xml:space="preserve"
   inkscape:version="1.2.1 (9c6d41e410, 2022-07-14)"
   xmlns:inkscape="http://www.inkscape.org/namespaces/inkscape"
   xmlns:sodipodi="http://sodipodi.sourceforge.net/DTD/sodipodi-0.dtd"
   xmlns="http://www.w3.org/2000/svg"
   xmlns:svg="http://www.w3.org/2000/svg"><defs
     id="defs40" /><sodipodi:namedview
     id="namedview38"
     pagecolor="#ffffff"
     bordercolor="#000000"
     borderopacity="0.25"
     inkscape:showpageshadow="2"
     inkscape:pageopacity="0.0"
     inkscape:pagecheckerboard="0"
     inkscape:deskcolor="#d1d1d1"
     showgrid="false"
     inkscape:zoom="11.513889"
     inkscape:cx="39.864897"
     inkscape:cy="27.966224"
     inkscape:window-width="1920"
     inkscape:window-height="1009"
     inkscape:window-x="-1"
     inkscape:window-y="-8"
     inkscape:window-maximized="1"
     inkscape:current-layer="svg36" /><path
     fill="#C1694F"
     d="M35 26c0 2.209-1.791 4-4 4H5c-2.209 0-4-1.791-4-4V6.313C1 4.104 6.791 0 9 0h20.625C32.719 0 35 2.312 35 5.375V26z"
     id="path22" /><path
     fill="#CCD6DD"
     d="M33 30c0 2.209-1.791 4-4 4H7c-2.209 0-4-1.791-4-4V6c0-4.119-.021-4 5-4h21c2.209 0 4 1.791 4 4v24z"
     id="path24" /><path
     fill="#E1E8ED"
     d="M31 31c0 1.657-1.343 3-3 3H4c-1.657 0-3-1.343-3-3V7c0-1.657 1.343-3 3-3h24c1.657 0 3 1.343 3 3v24z"
     id="path26" /><path
     fill="#C1694F"
     d="M31 32c0 2.209-1.791 4-4 4H6c-2.209 0-4-1.791-4-4V10c0-2.209 1.791-4 4-4h21c2.209 0 4 1.791 4 4v22z"
     id="path28" /><path
     fill="#D99E82"
     d="M29 32c0 2.209-1.791 4-4 4H6c-2.209 0-4-1.791-4-4V12c0-2.209 1.791-4 4-4h19.335C27.544 8 29 9.456 29 11.665V32z"
     id="path30" /><path
     fill="#C1694F"
     d="M6 6C4.312 6 4.269 4.078 5 3.25 5.832 2.309 7.125 2 9.438 2H11V0H8.281C4.312 0 1 2.5 1 5.375V32c0 2.209 1.791 4 4 4h2V6H6z"
     id="path32" /><path
     d="m 23.387785,16.960664 h -3.068758 v -3.112183 c 0,-0.572836 -0.458075,-1.037395 -1.022918,-1.037395 h -2.045838 c -0.564843,0 -1.02292,0.464559 -1.02292,1.037395 v 3.112183 h -3.068756 c -0.564845,0 -1.02292,0.464557 -1.02292,1.037393 v 2.074789 c 0,0.572837 0.458075,1.037394 1.02292,1.037394 h 3.068756 V 28.372 c 0,0.572838 0.458077,1.037395 1.02292,1.037395 h 2.045838 c 0.564843,0 1.022918,-0.464557 1.022918,-1.037395 v -7.26176 h 3.068758 c 0.564843,0 1.022918,-0.464557 1.022918,-1.037394 v -2.074789 c 0,-0.572836 -0.458075,-1.037393 -1.022918,-1.037393 z"
     id="path544"
     style="stroke-width:0.0321917;fill:#ccd6dd;fill-opacity:1" /></svg>
